<?xml version="1.0" standalone="no"?>
<!DOCTYPE svg PUBLIC "-//W3C//DTD SVG 20010904//EN"
 "http://www.w3.org/TR/2001/REC-SVG-20010904/DTD/svg10.dtd">
<svg version="1.0" xmlns="http://www.w3.org/2000/svg"
 width="420.000000pt" height="420.000000pt" viewBox="0 0 420.000000 420.000000"
 preserveAspectRatio="xMidYMid meet">
<metadata>
Created by potrace 1.11, written by Peter Selinger 2001-2013
</metadata>
<g transform="translate(0.000000,420.000000) scale(0.100000,-0.100000)"
fill="#000000" stroke="none">
<path d="M3550 4182 c-150 -50 -322 -164 -493 -325 l-59 -55 116 -116 116
-116 -132 -133 -133 -132 -78 -23 -79 -23 -36 33 c-137 124 -333 142 -484 46
-51 -32 -113 -95 -130 -133 l-11 -25 -38 35 c-69 62 -114 79 -209 79 -91 1
-132 -13 -198 -69 l-31 -26 -44 30 c-90 62 -225 87 -321 60 l-39 -11 -194 194
c-106 106 -192 196 -191 200 2 4 39 38 83 74 147 123 350 243 542 320 l88 35
-185 -6 c-211 -6 -233 -8 -350 -37 -121 -29 -286 -108 -354 -170 -24 -22 -35
-22 -60 -3 -75 57 -185 -55 -131 -132 15 -21 13 -26 -31 -85 -77 -105 -130
-230 -153 -363 -6 -33 -13 -73 -16 -90 -3 -16 -8 -115 -10 -220 l-5 -190 20
54 c73 197 228 460 366 617 l45 51 183 -181 182 -181 -29 -43 c-15 -23 -34
-59 -41 -80 -12 -35 -16 -37 -64 -43 -219 -28 -375 -212 -359 -425 l5 -74 -43
0 -43 0 -12 50 -12 50 -200 0 -200 0 6 -26 c6 -21 39 -192 60 -309 2 -11 11
-60 21 -110 9 -49 19 -100 21 -112 2 -13 6 -33 8 -45 3 -13 12 -61 21 -108 8
-47 22 -116 30 -155 8 -38 23 -119 35 -180 30 -160 29 -158 34 -185 3 -14 16
-83 30 -155 14 -71 28 -145 31 -164 3 -19 7 -37 9 -40 2 -3 7 -30 11 -58 l6
-53 -160 0 -161 0 0 -100 0 -100 182 -2 182 -3 8 -45 c4 -25 13 -69 19 -98
l10 -52 252 0 252 0 0 -98 c0 -89 3 -103 33 -167 41 -87 111 -156 201 -198 59
-28 76 -31 161 -32 86 0 101 3 160 31 160 77 241 207 236 379 l-3 85 306 0
306 0 0 -98 c0 -93 2 -102 37 -174 45 -91 103 -148 196 -191 60 -28 77 -31
162 -32 87 0 101 3 165 33 152 72 235 209 231 377 l-3 85 253 0 253 0 11 57
c7 32 15 75 20 95 4 20 5 39 2 43 -3 3 79 5 181 5 l187 0 0 100 0 100 -161 0
-160 0 6 38 c3 20 12 73 21 117 8 44 17 91 20 105 3 14 13 70 24 125 10 55 22
116 25 135 3 19 12 67 20 105 11 57 39 203 79 415 4 23 19 101 31 160 3 14 9
50 15 80 6 30 12 66 15 80 3 14 16 86 30 160 14 74 28 145 31 158 l4 22 -201
-2 -202 -3 -3 -25 c-10 -66 -12 -70 -53 -70 -39 0 -39 0 -46 48 -14 93 -91
195 -171 224 l-33 12 6 81 c10 148 -45 271 -161 356 l-38 28 84 86 c46 47 87
85 91 85 4 0 56 -49 117 -110 l109 -109 29 27 c94 89 242 283 291 382 12 25
26 52 30 60 29 52 46 131 45 215 0 77 -4 97 -26 140 -31 60 -89 119 -143 148
-57 29 -199 34 -275 9z"/>
</g>
</svg>
